<svg width="8" height="5" viewBox="0 0 8 5" fill="none" xmlns="http://www.w3.org/2000/svg">
<path d="M4.02112 4.02116L6.99817 1.04411C7.17981 0.862473 7.17981 0.567893 6.99817 0.386256C6.8165 0.204581 6.52199 0.204581 6.34032 0.386256L4.15736 2.56921C4.15736 2.56921 3.9377 2.81522 3.69397 2.81006C3.4561 2.80502 3.22703 2.56921 3.22703 2.56921L1.04408 0.38633C0.862401 0.204656 0.567896 0.204656 0.386221 0.38633C0.295459 0.47713 0.249985 0.596212 0.249985 0.715257C0.249985 0.834301 0.295459 0.953347 0.386221 1.04418L3.36327 4.02116C3.54494 4.20283 3.83945 4.20283 4.02112 4.02116Z" fill="black" stroke="black" stroke-width="0.5"/>
</svg>
