<svg width="16" height="11" viewBox="0 0 16 11" fill="none" xmlns="http://www.w3.org/2000/svg">
<path d="M10.0908 0.566406C10.1793 0.477901 10.3236 0.477901 10.4121 0.566406L15.0625 5.21777C15.151 5.30634 15.151 5.44955 15.0625 5.53809L10.4121 10.1885C10.3677 10.2329 10.3105 10.2548 10.252 10.2549C10.1932 10.2549 10.1352 10.2329 10.0908 10.1885H10.0898C10.0023 10.0999 10.0027 9.95642 10.0908 9.86816L13.502 6.45801L14.3555 5.60449H0.726562C0.601565 5.60441 0.500138 5.50291 0.5 5.37793C0.5 5.2528 0.601454 5.15145 0.726562 5.15137H14.3555L10.0908 0.886719C10.0026 0.798186 10.0025 0.654882 10.0908 0.566406Z" fill="black" stroke="black"/>
</svg>
