<svg width="16" height="11" viewBox="0 0 16 11" fill="none" xmlns="http://www.w3.org/2000/svg">
<path d="M5.53834 10.189C5.44984 10.2775 5.30556 10.2775 5.21705 10.189L0.566662 5.53759C0.478189 5.44902 0.478129 5.30581 0.566662 5.21728L5.21705 0.566886C5.26149 0.522481 5.3187 0.500578 5.37721 0.50048C5.43591 0.50048 5.49393 0.522492 5.53834 0.566886L5.53932 0.566886C5.6269 0.65548 5.62646 0.79894 5.53834 0.887199L2.12721 4.29735L1.27369 5.15087L14.9026 5.15087C15.0276 5.15095 15.129 5.25246 15.1292 5.37743C15.1292 5.50256 15.0277 5.60391 14.9026 5.604L1.27369 5.604L5.53834 9.86864C5.62655 9.95718 5.62664 10.1005 5.53834 10.189Z" fill="black" stroke="black"/>
</svg>
