<svg width="125" height="125" viewBox="0 0 125 125" fill="none" xmlns="http://www.w3.org/2000/svg">
<path d="M124.897 114.333L115.467 65.8494C115.19 64.358 113.879 63.271 112.366 63.271H107.248L106.795 60.4904C106.568 59.1254 105.509 58.0637 104.147 57.8615C103.895 57.811 103.668 57.7857 103.416 57.7604C103.265 57.7351 103.088 57.7098 102.937 57.7098L101.727 57.5329L101.979 56.3448C102.635 53.3115 102.105 50.2023 100.492 47.5481L100.189 47.0678L100.391 46.5369C101.198 44.4389 101.046 42.088 99.9873 40.1163C98.9284 38.1446 97.0376 36.7291 94.8441 36.2488L94.113 36.0971L93.9869 35.3388C92.4742 27.2498 85.4149 21.3347 77.2211 21.2842C77.1455 21.2842 77.0446 21.2842 76.969 21.3094C76.8681 21.3094 76.7673 21.3347 76.6664 21.3347L76.0109 21.36L75.658 20.8039C74.4226 18.8827 72.4309 17.6188 70.1618 17.3155C67.8927 17.0374 65.6489 17.7705 63.9849 19.3378L63.3294 19.9444L62.5731 19.4641C60.3544 18.0233 57.7828 17.265 55.1608 17.265C50.9 17.2902 46.9418 19.2366 44.3197 22.6239L43.8407 23.2306L43.1096 23.0031C40.2858 22.1942 37.3109 22.6745 34.9157 24.3681C32.5206 26.0617 31.0331 28.7159 30.8566 31.6482L30.8062 32.356L30.1507 32.634C27.2766 33.8474 25.4361 36.6532 25.4109 39.7624C25.4109 40.2933 25.4865 40.8241 25.5874 41.3549L25.6882 41.8352L25.4109 42.2397C22.688 46.36 21.9821 51.4409 23.4696 56.1426L23.873 57.4318L22.5367 57.6087C22.3098 57.634 22.0577 57.6593 21.8308 57.7098C21.5031 57.7604 21.1501 57.811 20.8223 57.8362C19.4609 58.0385 18.3768 59.1001 18.1499 60.4652L17.6961 63.2457H12.6285C11.1158 63.2457 9.8048 64.3327 9.52747 65.8241L0.0982613 114.333C-0.20428 115.9 0.199108 117.518 1.20758 118.756C2.21605 119.995 3.72876 120.703 5.3171 120.703H50.8244L51.1521 121.259C52.5136 123.509 57.0769 125.025 62.4722 125.025C67.8423 125.025 72.3552 123.509 73.7419 121.259L74.0696 120.728H119.627C121.216 120.728 122.703 120.02 123.737 118.782C124.796 117.518 125.199 115.9 124.897 114.333ZM25.9403 45.6269L26.5958 44.0597L27.7808 45.273C28.1842 45.7028 28.6632 46.0567 29.1674 46.3853C29.6465 46.6633 30.2516 46.5117 30.5541 46.0314C30.8314 45.5764 30.7054 45.0203 30.302 44.6916L30.2263 44.6411C28.0581 43.3266 26.9992 40.6977 27.68 38.2457C28.3607 35.7938 30.6045 34.0749 33.1257 34.0749H33.1509C34.9157 34.0749 36.6049 34.9343 37.6638 36.3752C37.8655 36.6532 38.2437 36.8049 38.5967 36.7796C38.9496 36.7291 39.2774 36.5016 39.4034 36.1729C39.5547 35.8443 39.5043 35.4652 39.2774 35.1618C38.0168 33.4682 36.0755 32.3812 33.9829 32.1537L32.7223 32.0273L32.9744 30.7887C33.7308 27.2751 36.8823 24.6967 40.4623 24.6967H40.4875H40.5127C40.8153 24.722 41.1178 24.7473 41.4204 24.7978L42.807 25.0253L42.3028 26.3398C42.1515 26.7442 42.0002 27.1487 41.8994 27.5531C41.7733 28.084 42.1011 28.6148 42.6305 28.7665C43.16 28.8929 43.7146 28.5895 43.8659 28.0587C44.1432 27.0223 44.5466 26.0364 45.1013 25.0759C47.1939 21.5369 51.0513 19.3378 55.1356 19.3125C57.4046 19.3125 59.5729 19.995 61.4637 21.2336L62.2201 21.7139L61.9176 22.5481C61.6402 23.3317 61.4889 24.1659 61.4889 25C61.4889 25.5562 61.9428 26.0112 62.4974 26.0112C63.0521 26.0112 63.5059 25.5562 63.5059 25C63.5059 21.8656 66.0523 19.3125 69.1533 19.3125C72.2796 19.3125 74.826 21.8656 74.826 25C74.826 25.5562 75.2798 26.0112 75.8344 26.0112C76.3891 26.0112 76.8429 25.5562 76.8429 25C76.8429 24.9748 76.8429 24.9242 76.8177 24.8989C76.7925 24.7978 76.7925 24.6967 76.7925 24.5703L76.7169 23.3064L77.9774 23.3822C84.5829 23.7867 90.2556 28.5895 91.7431 35.0607L91.9952 36.1224L90.9615 36.4257C90.0791 36.6785 89.2723 37.0829 88.5412 37.6391C88.2639 37.8666 88.0874 38.2205 88.1378 38.5744C88.1882 38.9283 88.4151 39.2569 88.7429 39.3833C89.0706 39.5349 89.474 39.4844 89.7514 39.2569C91.8944 37.6643 94.8946 37.7907 96.8863 39.5602C98.878 41.3297 99.3823 44.2872 98.0712 46.6128C97.4914 47.6492 96.609 48.4581 95.5248 48.9636C95.1215 49.1659 94.8946 49.6461 94.9954 50.1012C95.0963 50.5562 95.4996 50.8848 95.9787 50.91C96.1047 50.91 96.256 50.8848 96.4073 50.8089C96.8863 50.5814 97.3653 50.2781 97.7939 49.9242L99.0293 48.9384L99.5587 50.4298C100.819 53.994 100.038 57.9626 97.5166 60.7685L97.4409 60.8443C94.3399 64.2316 89.2723 65.1416 85.1376 63.0941L85.1124 63.0688C84.709 62.8413 84.3056 62.6138 83.9274 62.3357L83.0198 61.6785L83.6753 60.7685C85.0115 58.8726 85.2132 56.4207 84.1543 54.3479C84.0031 54.0192 83.6753 53.817 83.2971 53.7917C82.9442 53.7665 82.5912 53.9434 82.3895 54.2468C82.1878 54.5501 82.1626 54.9545 82.3391 55.2579C83.2971 57.179 82.6921 59.5551 80.9272 60.7685C79.8683 61.4763 78.6077 61.6785 77.3976 61.3752C76.1874 61.0718 75.1789 60.2629 74.5991 59.1507C74.4226 58.7968 74.0948 58.5946 73.7419 58.5693C73.3889 58.544 73.0359 58.721 72.8343 59.0243C72.6326 59.3276 72.6073 59.7068 72.7838 60.0354C73.8679 62.2093 76.0361 63.5744 78.4565 63.5744H78.4817C79.2633 63.5744 80.0196 63.4227 80.7507 63.1194L81.4063 62.8666L81.9357 63.3216C82.6416 63.9282 83.398 64.4591 84.23 64.8888C87.0537 66.3549 90.2808 66.6583 93.3062 65.723L96.5585 64.7371L94.5416 67.4925C92.2221 70.6522 88.8185 72.7503 84.9611 73.3822C84.4569 73.4581 84.0787 73.9384 84.1039 74.4692C84.1543 75 84.5829 75.4045 85.1124 75.4045C85.1628 75.4045 85.2132 75.4045 85.2889 75.4045C86.499 75.2023 87.684 74.8484 88.8437 74.3681L89.7766 73.9636L90.2808 74.8484C90.9867 76.087 91.5414 77.4015 91.97 78.7665C92.0708 79.0951 92.1213 79.449 92.1465 79.8029C92.1465 81.1932 91.3145 82.4571 90.0539 82.9879L90.0287 83.0132C89.6001 83.1648 89.1715 83.266 88.7429 83.266C87.684 83.266 86.6755 82.7857 85.9696 81.9515C84.4317 80.1568 82.4399 78.817 80.1961 78.1092C75.6832 76.5926 73.3385 75.0759 72.33 73.0536L71.5989 71.6128L73.1872 71.4106C74.2461 71.2842 75.2798 71.0567 76.3135 70.7533C76.6412 70.6522 76.9186 70.3742 76.9942 70.0203C77.0698 69.6664 76.969 69.2872 76.6917 69.0344C76.4143 68.7816 76.0361 68.7058 75.7084 68.8069C74.4226 69.2114 73.0864 69.4389 71.7249 69.54C69.1533 69.7422 66.5061 69.3378 64.111 68.3772C63.7076 68.2255 63.2538 68.3266 62.9764 68.6552C59.4216 72.7503 53.4716 73.4328 49.0848 70.2478C44.7231 67.0627 43.513 61.1729 46.2862 56.5218C46.4879 56.2184 46.4879 55.814 46.3115 55.4854C46.135 55.1568 45.8072 54.9545 45.429 54.9545C45.0761 54.9545 44.7231 55.1315 44.5466 55.4601C44.0928 56.2437 43.7146 57.1032 43.4121 57.9879L43.16 58.8221L42.2776 58.7715C40.0085 58.6451 38.1933 56.7746 38.1428 54.4743V54.3984C38.1428 54.1456 38.042 53.8676 37.8403 53.6906C37.6638 53.5137 37.3865 53.4126 37.1344 53.4126C36.5545 53.4126 36.1007 53.8929 36.1007 54.449C36.1007 57.7098 38.5462 60.4146 41.7733 60.7685L42.7818 60.8696V61.8807C42.7818 62.538 42.8574 63.1952 42.9583 63.8524L43.1348 64.9141L42.0759 65.1416C36.8318 66.2791 31.4617 64.4085 28.0329 60.2629C24.6293 56.2184 23.8225 50.5562 25.9403 45.6269ZM50.7992 118.63H5.3171C4.33384 118.63 3.401 118.2 2.77071 117.417C2.14042 116.658 1.8883 115.672 2.08999 114.712L11.6957 65.2933H17.3935L10.4351 107.305C10.2586 108.392 10.662 109.479 11.494 110.212C12.326 110.945 13.4605 111.173 14.5194 110.844C26.1168 107.078 38.5967 106.294 50.5975 108.544L51.6059 108.746L50.7992 118.63ZM72.0527 120.197C71.1955 121.537 67.3885 122.953 62.4974 122.953C57.6063 122.953 53.7994 121.562 52.9422 120.197L52.7405 119.869L53.6229 109.201L54.9087 109.53C57.329 110.137 59.6989 110.945 61.9932 111.906L62.0436 111.931C62.1697 112.007 62.3461 112.032 62.4974 112.032C62.6487 112.032 62.8 112.007 62.926 111.931L62.9764 111.906C65.2707 110.92 67.6658 110.111 70.061 109.505L71.3468 109.176L72.2292 119.869L72.0527 120.197ZM64.9934 108.898L63.5059 109.403V80.8898C63.5059 80.359 63.1277 79.8787 62.5983 79.8281C61.9932 79.7776 61.4637 80.2326 61.4637 80.8393V109.429L59.9762 108.923C45.1265 103.943 28.7641 103.943 13.9143 108.898C13.7883 108.948 13.6622 108.948 13.5614 108.948C12.8806 108.948 12.326 108.342 12.452 107.634L20.3433 59.9596L21.1501 59.8332C21.9569 59.7068 22.8141 59.6057 23.6209 59.5046L24.9319 59.3276L25.31 59.9596C29.0414 65.9252 36.1259 68.8069 42.9331 67.1386L43.7903 66.9363L44.1937 67.72C45.9837 71.1072 49.2864 73.5086 53.043 74.1659C56.7996 74.7978 60.7326 73.635 63.5311 71.0061L64.0101 70.5511L64.6404 70.728C66.0271 71.1325 67.4389 71.3853 68.876 71.4864L69.6828 71.5369L69.8845 72.3206C70.8173 75.8342 73.4898 77.9828 79.4902 80.0051C81.381 80.5865 83.0702 81.724 84.356 83.2407C85.4401 84.5299 87.0285 85.2882 88.6925 85.2882C89.4236 85.2882 90.1295 85.1365 90.785 84.8585C92.802 83.999 94.113 82.0021 94.113 79.8029C94.113 79.2215 94.0122 78.6654 93.8357 78.1092C93.3819 76.6431 92.7516 75.2528 92.0204 73.9131L91.5162 73.0283L92.3482 72.4217C95.777 69.9444 98.1721 66.3044 99.0545 62.1588L99.1049 61.8807L99.2814 61.6532C99.71 61.1477 100.088 60.6168 100.416 60.0607L100.794 59.4288L102.004 59.5804C102.559 59.6563 103.164 59.7321 103.744 59.8332L104.551 59.9596L112.442 107.609C112.568 108.443 111.761 109.151 110.954 108.873C103.517 106.395 95.7265 105.131 87.9361 105.131C80.2213 105.182 72.4309 106.421 64.9934 108.898ZM122.199 117.442C121.569 118.2 120.636 118.655 119.653 118.655H74.1957L73.3889 108.746L74.3974 108.544C86.3982 106.269 98.9032 107.078 110.501 110.87C111.534 111.198 112.669 110.945 113.526 110.212C114.358 109.479 114.761 108.392 114.585 107.305L107.627 65.3185H113.35L122.955 114.737C123.081 115.698 122.829 116.684 122.199 117.442Z" fill="black"/>
<path d="M72.2544 119.869L72.0527 120.197C71.1955 121.537 67.3885 122.952 62.4974 122.952C57.6063 122.952 53.7994 121.562 52.9422 120.197L52.7405 119.869L53.6229 109.201L54.9087 109.53C57.329 110.136 59.6989 110.945 61.9932 111.906L62.0436 111.931C62.1697 112.007 62.3462 112.032 62.4974 112.032C62.6487 112.032 62.8 112.007 62.926 111.931L62.9765 111.906C65.2707 110.92 67.6658 110.111 70.061 109.505L71.3468 109.176L72.2544 119.869Z" fill="black"/>
<path d="M76.3891 44.363C75.4563 49.2164 71.5484 53.0081 66.7078 53.817L66.0523 53.9181L65.8254 54.5248C64.4387 58.2406 60.8586 60.7179 56.9004 60.7179H56.8752C56.3205 60.7179 55.8667 60.2629 55.8667 59.7068C55.8667 59.1507 56.3205 58.6957 56.8752 58.6957C59.3207 58.6957 61.615 57.5076 63.0269 55.5106L64.0353 54.095L62.3461 53.7412C59.9006 53.2103 57.7324 51.9717 56.0432 50.1011C55.8667 49.8989 55.7911 49.6714 55.7911 49.4186C55.7911 49.1406 55.9171 48.8625 56.1188 48.6603C56.5474 48.2811 57.1777 48.3064 57.5559 48.7361C60.9091 52.3256 66.2792 52.9323 70.3635 50.2022C72.4813 48.7361 73.9184 46.5369 74.3974 43.9838C74.4478 43.6299 74.6999 43.3266 75.0529 43.2002C75.4058 43.0738 75.784 43.1497 76.0614 43.4024C76.3639 43.6047 76.49 43.9838 76.3891 44.363Z" fill="black"/>
<path d="M56.6232 35.5409C56.6232 36.0971 56.1694 36.5521 55.6147 36.5521C53.8247 36.5521 52.1355 37.2599 50.8497 38.5238C49.5639 39.7877 48.8832 41.5066 48.8832 43.3013C48.8832 43.8574 48.4293 44.3124 47.8747 44.3124C47.5974 44.3124 47.3452 44.2113 47.1688 44.0091C46.9671 43.8069 46.8662 43.5541 46.8662 43.3013C46.8662 38.4479 50.7992 34.5298 55.6399 34.5045C56.1694 34.5045 56.6232 34.9596 56.6232 35.5409Z" fill="black"/>
<path d="M63.5059 1.01112V3.15976C63.5059 3.71587 63.0521 4.17088 62.4975 4.17088C61.9428 4.17088 61.489 3.71587 61.489 3.15976V1.01112C61.489 0.455005 61.9428 0 62.4975 0C63.0521 0 63.5059 0.455005 63.5059 1.01112Z" fill="black"/>
<path d="M100.038 16.5824L97.8696 18.7563C97.6175 19.0091 97.2393 19.1355 96.8864 19.0344C96.5334 18.9333 96.2561 18.6552 96.1552 18.3013C96.0544 17.9474 96.1552 17.5683 96.4326 17.2902L98.5756 15.1416H98.6008C98.8025 14.9393 99.0546 14.8382 99.3319 14.8382C99.4076 14.8382 99.5084 14.8382 99.584 14.8635C99.937 14.9646 100.214 15.2427 100.315 15.5966C100.416 15.9252 100.315 16.3044 100.038 16.5824Z" fill="black"/>
<path d="M28.7639 18.4024C28.6127 18.7816 28.2345 19.0344 27.8311 19.0344C27.5538 19.0344 27.3017 18.9333 27.1252 18.7311L24.957 16.5571C24.6796 16.3044 24.5788 15.9252 24.6796 15.5713C24.7805 15.2174 25.0578 14.9393 25.4108 14.8382C25.4864 14.813 25.5873 14.813 25.6629 14.813C25.9402 14.813 26.1923 14.9141 26.4193 15.1416L28.5623 17.2902C28.8396 17.5935 28.9152 18.0233 28.7639 18.4024Z" fill="black"/>
<path d="M45.3281 9.32757C45.2272 9.58035 45.0255 9.78258 44.7734 9.88369C44.6473 9.93424 44.5213 9.95952 44.37 9.95952C43.9666 9.95952 43.5884 9.70674 43.4372 9.32757L40.9664 3.31139C40.8151 2.98278 40.8656 2.57833 41.0925 2.27499C41.2942 2.02221 41.5967 1.87054 41.8992 1.87054C41.9497 1.87054 42.0001 1.87054 42.0505 1.87054C42.4035 1.9211 42.7312 2.17388 42.8573 2.52777L45.3281 8.51867C45.4289 8.79673 45.4289 9.07479 45.3281 9.32757Z" fill="black"/>
<path d="M84.0283 3.362L81.5575 9.3529C81.4819 9.55513 81.3558 9.7068 81.1793 9.80791C81.0281 9.90902 80.8264 9.98486 80.6247 9.98486C80.4986 9.98486 80.3473 9.95958 80.2465 9.90902C79.9944 9.80791 79.7927 9.60569 79.6918 9.3529C79.591 9.10012 79.591 8.82207 79.6918 8.56928L82.1626 2.60366C82.3139 2.19921 82.7173 1.97171 83.0954 1.97171C83.2215 1.97171 83.3476 1.99699 83.4736 2.04754C83.7257 2.14866 83.9274 2.35088 84.0283 2.60366C84.1291 2.83116 84.1291 3.10922 84.0283 3.362Z" fill="black"/>
<path d="M113.198 32.2801C113.148 32.634 112.921 32.9626 112.568 33.089L106.593 35.5662C106.467 35.6168 106.341 35.642 106.215 35.642C105.736 35.642 105.307 35.2882 105.206 34.8331C105.105 34.3529 105.357 33.8726 105.811 33.6956L111.786 31.2184C111.913 31.1678 112.039 31.1425 112.165 31.1425C112.392 31.1425 112.593 31.2184 112.795 31.3448C113.098 31.5723 113.249 31.9262 113.198 32.2801Z" fill="black"/>
<path d="M19.7129 35.0101C19.5112 35.541 18.9061 35.7685 18.3767 35.5662L12.4015 33.089C12.1494 32.9879 11.9477 32.7857 11.8468 32.5329C11.746 32.2801 11.746 32.002 11.8468 31.7493C11.9477 31.4965 12.1494 31.2943 12.4015 31.1931C12.5275 31.1426 12.6536 31.1173 12.7797 31.1173C12.9057 31.1173 13.057 31.1426 13.1578 31.1931L19.133 33.6704C19.3851 33.7715 19.5868 33.9737 19.6877 34.2265C19.8137 34.4793 19.8137 34.7573 19.7129 35.0101Z" fill="black"/>
</svg>
