<svg data-illustration-name="on_the_way" width="300" height="204" viewBox="0 0 300 204" fill="none" xmlns="http://www.w3.org/2000/svg">  <path opacity="0.15" fill-rule="evenodd" clip-rule="evenodd" d="M91.2886 168.897C76.0242 166.188 38.149 136.922 44.1885 95.7914C50.228 54.6605 66.3876 40.8677 99.1258 45.3346C131.864 49.8007 158.208 49.0954 189.078 34.0183C219.948 18.9412 235.899 30.5367 232.349 47.9995C228.799 65.4615 225.44 90.0442 248.053 100.125C270.666 110.208 259.801 138.108 238.778 153.812C181.898 198.532 91.2886 168.897 91.2886 168.897Z" fill="#a1a7ae" class="lmn-illustration-color-neutral-tertiary"></path>  <path fill-rule="evenodd" clip-rule="evenodd" d="M167.383 27.3722C166.968 27.3722 166.519 27.4673 166.274 27.0864C166.073 26.775 166.146 26.2481 166.087 25.8857C166.017 25.4662 165.918 25.0513 165.818 24.6379C165.533 23.4604 165.102 22.3401 164.5 21.2893C163.369 19.3161 161.713 17.7708 159.621 16.8722C157.311 15.8794 154.698 15.6523 152.214 15.8532C149.556 16.0687 147.15 16.9464 144.639 17.7724C142.248 18.5597 139.743 18.8687 137.241 18.4847C134.721 18.0976 132.816 16.7316 130.69 15.4352C128.514 14.1078 126.027 13.2394 123.454 13.4387C121.053 13.6249 118.838 14.617 116.853 15.9412C114.995 17.1813 113.462 18.6717 112.596 20.7709C111.665 23.0285 111.666 25.5063 113.197 27.502C115.416 30.394 119.537 31.1419 122.965 31.0669C124.948 31.0244 126.895 30.6628 128.767 30.0038C131.264 29.1261 133.421 27.638 135.757 26.4296C136.853 25.8633 137.986 25.3974 139.173 25.0628C140.325 24.7376 141.461 24.5877 142.504 25.2846C143.608 26.0209 144.597 26.7441 145.859 27.2053C147.071 27.6473 148.354 27.8953 149.645 27.8845C152.156 27.8659 154.631 27.0833 157.069 26.5586C159.059 26.1322 161.186 25.7057 163.214 26.1167C164.06 26.2882 165.296 26.6421 165.602 27.5206C160.458 28.4531 158.439 34.8141 159.888 39.4831C160.671 42.0034 165.374 44.9494 167.204 43.6244C168.363 42.7853 167.659 41.6828 167.204 40.9557C166.332 39.5627 166.033 37.7733 167.647 36.8037C169.039 35.9669 170.502 37.9533 170.529 37.951C170.912 37.9209 174.216 36.0519 176.493 33.3245C178.739 33.4582 179.241 29.2288 175.687 27.3722C172.133 25.5156 168.031 27.3722 167.383 27.3722Z" fill="#0e1115" class="lmn-illustration-color-neutral-primary"></path>  <path fill-rule="evenodd" clip-rule="evenodd" d="M167.267 56.8662L174.158 45.6369C174.158 45.6369 179.242 46.6552 178.799 41.5188C178.422 37.138 175.81 30.767 175.81 30.767C175.81 30.767 175.337 36.6482 167.671 36.547C167.124 35.1037 165.758 34.9407 164.941 35.6948C164.216 36.3623 163.966 38.6107 167.234 41.3697L167.885 41.9028L156.533 54.0168L167.267 56.8662Z" fill="#A04E2C"></path>  <path opacity="0.4" fill-rule="evenodd" clip-rule="evenodd" d="M174.165 45.6172L172.71 44.8013L171.461 50.0319L174.165 45.6172Z" fill="#07080A" class="lmn-illustration-color-neutral-primary"></path>  <path fill-rule="evenodd" clip-rule="evenodd" d="M166.856 40.4333C166.257 40.55 165.866 41.131 165.982 41.7306C166.1 42.3309 166.682 42.7219 167.28 42.6044C167.881 42.4877 168.272 41.9067 168.155 41.3064C168.051 40.7787 167.589 40.4125 167.071 40.4125C167.001 40.4125 166.929 40.4187 166.856 40.4333Z" fill="#cbced2" class="lmn-illustration-color-neutral-quaternary"></path>  <mask id="mask0_476_8303" style="mask-type:luminance" maskUnits="userSpaceOnUse" x="165" y="40" width="4" height="3">    <path fill-rule="evenodd" clip-rule="evenodd" d="M166.856 40.4333C166.257 40.55 165.866 41.131 165.982 41.7306C166.1 42.3309 166.682 42.7219 167.28 42.6044C167.881 42.4877 168.272 41.9067 168.155 41.3064C168.051 40.7787 167.589 40.4125 167.071 40.4125C167.001 40.4125 166.929 40.4187 166.856 40.4333Z" fill="white"></path>  </mask>  <g mask="url(#mask0_476_8303)">  </g>  <path fill-rule="evenodd" clip-rule="evenodd" d="M119.123 186.139C116.033 186.139 113.528 183.634 113.528 180.544C113.528 177.454 116.033 174.949 119.123 174.949C122.214 174.949 124.719 177.454 124.719 180.544C124.719 183.634 122.214 186.139 119.123 186.139ZM119.123 170.012C113.307 170.012 108.592 174.727 108.592 180.544C108.592 186.361 113.307 191.076 119.123 191.076C124.94 191.076 129.656 186.361 129.656 180.544C129.656 174.727 124.94 170.012 119.123 170.012Z" fill="#0e1115" class="lmn-illustration-color-neutral-primary"></path>  <path fill-rule="evenodd" clip-rule="evenodd" d="M223.836 186.139C220.745 186.139 218.241 183.634 218.241 180.544C218.241 177.454 220.745 174.949 223.836 174.949C226.926 174.949 229.431 177.454 229.431 180.544C229.431 183.634 226.926 186.139 223.836 186.139ZM223.836 170.012C218.02 170.012 213.304 174.727 213.304 180.544C213.304 186.361 218.02 191.076 223.836 191.076C229.653 191.076 234.368 186.361 234.368 180.544C234.368 174.727 229.653 170.012 223.836 170.012Z" fill="#0e1115" class="lmn-illustration-color-neutral-primary"></path>  <path fill-rule="evenodd" clip-rule="evenodd" d="M207.799 78.8852L213.266 127.09L216.522 125.055L211.461 77.4604L207.799 78.8852Z" fill="#006ADB" class="lmn-illustration-color-accent"></path>  <path fill-rule="evenodd" clip-rule="evenodd" d="M110.119 170.842C112.674 168.682 117.302 166.183 123.822 168.356C127.921 169.81 130.65 172.952 131.587 174.166C131.828 174.477 132.196 174.658 132.59 174.658H192.123C194.163 174.658 195.944 172.286 196.801 170.435C198.903 165.894 205.961 158.625 215.708 156.847C214.049 146.73 211.236 120.262 211.236 120.262H217.041L223.84 167.859C223.84 167.859 227.287 167.727 230.269 169.12C230.868 169.4 231.162 170.104 230.912 170.715C230.82 170.941 230.717 171.184 230.606 171.442C227.469 178.726 219.689 182.853 211.893 181.403L211.544 181.338C210.877 181.214 210.419 180.586 210.52 179.915C210.866 177.595 212.277 172.481 218.036 169.351C217.207 166.532 216.571 163.629 216.571 163.629C216.571 163.629 207.004 165.109 204.369 173.908C203.063 178.265 198.974 181.194 194.424 181.194H126.511C120.837 181.194 115.48 178.578 111.992 174.103L110.115 171.695C110.115 171.695 109.913 171.016 110.119 170.842Z" fill="#006ADB" class="lmn-illustration-color-accent"></path>  <path fill-rule="evenodd" clip-rule="evenodd" d="M201.911 77.4191C200.949 77.3172 200.695 79.5593 201.714 79.9665C202.733 80.3744 204.151 78.9953 206.173 79.608C209.42 81.5071 210.299 79.0811 211.205 78.8771C212.111 78.6731 213.132 77.2368 211.666 76.1806C209.685 74.7544 201.911 77.4191 201.911 77.4191Z" fill="#006ADB" class="lmn-illustration-color-accent"></path>  <path opacity="0.3" fill-rule="evenodd" clip-rule="evenodd" d="M110.119 170.842C112.674 168.682 117.302 166.183 123.822 168.356C127.921 169.81 130.65 172.952 131.587 174.166C131.828 174.477 132.196 174.658 132.59 174.658H192.123C194.163 174.658 195.944 172.286 196.801 170.435C198.903 165.894 205.961 158.625 215.708 156.847C214.049 146.73 211.236 120.262 211.236 120.262H217.041L223.84 167.859C223.84 167.859 227.287 167.727 230.269 169.12C230.868 169.4 231.162 170.104 230.912 170.715C230.82 170.941 230.717 171.184 230.606 171.442C227.469 178.726 219.689 182.853 211.893 181.403L211.544 181.338C210.877 181.214 210.419 180.586 210.52 179.915C210.866 177.595 212.277 172.481 218.036 169.351C217.207 166.532 216.571 163.629 216.571 163.629C216.571 163.629 207.004 165.109 204.369 173.908C203.063 178.265 198.974 181.194 194.424 181.194H126.511C120.837 181.194 115.48 178.578 111.992 174.103L110.115 171.695C110.115 171.695 109.913 171.016 110.119 170.842Z" fill="#0e1115" class="lmn-illustration-color-neutral-primary"></path>  <path opacity="0.298735" fill-rule="evenodd" clip-rule="evenodd" d="M201.911 77.4191C200.949 77.3172 200.695 79.5593 201.714 79.9665C202.733 80.3744 204.151 78.9953 206.173 79.608C209.42 81.5071 210.299 79.0811 211.205 78.8771C212.111 78.6731 213.132 77.2368 211.666 76.1806C209.685 74.7544 201.911 77.4191 201.911 77.4191Z" fill="#0e1115" class="lmn-illustration-color-neutral-primary"></path>  <path fill-rule="evenodd" clip-rule="evenodd" d="M193.552 80.2794C198.298 78.4004 203.418 76.0686 205.861 75.1276C206.748 74.7861 207.626 75.6421 207.308 76.5376C206.765 78.0674 205.022 80.5808 203.248 81.2112C200.081 82.3362 199.289 77.7066 191.785 82.5672" fill="#A04E2C"></path>  <path fill-rule="evenodd" clip-rule="evenodd" d="M165.062 52.5887C162.937 51.2598 160.619 51.2335 158.486 52.0687C149.029 55.9357 141.467 74.1426 133.838 85.6401C140.063 87.0463 152.186 94.1366 152.186 94.1366C152.186 94.1366 159.896 78.7096 163.27 77.9664C171.607 76.1322 170.086 62.3369 168.347 57.5474C167.659 55.6537 166.624 53.5653 165.062 52.5887Z" fill="#006ADB" class="lmn-illustration-color-accent"></path>  <path fill-rule="evenodd" clip-rule="evenodd" d="M164.32 77.6545L157.164 62.0165L158.595 57.856L168.306 72.841C168.306 72.841 168.412 74.4944 166.493 76.3101C164.575 78.125 164.32 77.6545 164.32 77.6545Z" fill="#0e1115" class="lmn-illustration-color-neutral-primary"></path>  <path fill-rule="evenodd" clip-rule="evenodd" d="M155.009 57.2117C156.264 63.1423 165.208 75.9903 176.318 81.9233C187.007 87.6322 198.297 81.6629 198.297 81.6629L198.959 77.3602C198.959 77.3602 185.575 77.3965 180.786 74.5378C172.973 69.8735 167.445 55.6657 167.445 55.6657C167.445 55.6657 165.27 49.9111 158.986 51.8898C154.013 53.8284 155.009 57.2117 155.009 57.2117Z" fill="#006ADB" class="lmn-illustration-color-accent"></path>  <path opacity="0.298735" fill-rule="evenodd" clip-rule="evenodd" d="M155.009 57.2117C156.264 63.1423 165.208 75.9903 176.318 81.9233C187.007 87.6322 198.297 81.6629 198.297 81.6629L198.959 77.3602C198.959 77.3602 185.575 77.3965 180.786 74.5378C172.973 69.8735 167.445 55.6657 167.445 55.6657C167.445 55.6657 165.27 49.9111 158.986 51.8898C154.013 53.8284 155.009 57.2117 155.009 57.2117Z" fill="#0e1115" class="lmn-illustration-color-neutral-primary"></path>  <path fill-rule="evenodd" clip-rule="evenodd" d="M75.9692 160.22L82.7775 149.856L89.5164 158.552C89.1234 159.14 88.5223 159.87 87.9466 160.569C87.2739 161.386 86.6357 162.162 86.4042 162.618C85.8339 163.742 85.841 165.631 86.1585 167.88C87.045 166.787 89.9623 163.961 92.2817 162.144C93.9884 160.806 95.5028 159.86 96.7395 159.417C98.253 158.874 99.3651 159.093 99.8978 160.217C100.912 162.359 98.1543 164.481 92.9835 166.577C92.4737 166.783 91.952 166.985 91.4222 167.18L90.7005 167.439L91.0016 167.403C91.3693 167.363 91.7331 167.332 92.0915 167.31L92.625 167.285C95.0506 167.206 96.9671 167.614 98.1838 168.645C98.2868 168.732 98.2995 168.887 98.2122 168.99C98.1248 169.093 97.9705 169.106 97.8674 169.018C96.7643 168.083 94.9567 167.698 92.641 167.774C91.2619 167.82 89.7819 168.025 88.2908 168.339C87.8433 168.433 87.4179 168.533 87.0212 168.633L86.7879 168.694L86.3066 168.828C86.6473 170.833 87.1888 173.06 87.7633 175.256C89.1007 180.369 87.3453 180.85 87.3453 180.85L75.9359 161.364C75.7304 161.007 75.7436 160.564 75.9692 160.22ZM99.4556 160.427C99.0523 159.575 98.2092 159.409 96.9045 159.877C95.7277 160.299 94.2524 161.221 92.5834 162.529L92.1091 162.908C89.9447 164.668 87.4239 167.118 86.591 168.122L86.4709 168.271L86.7544 168.194L87.3723 168.012L88.0346 167.81C89.6596 167.304 91.2844 166.738 92.7997 166.123L93.4098 165.871C97.8908 163.978 100.237 162.076 99.4556 160.427Z" fill="#0e1115" class="lmn-illustration-color-neutral-primary"></path>  <path fill-rule="evenodd" clip-rule="evenodd" d="M123.274 99.1128C114.846 117.112 85.9181 145.194 85.983 145.467C86.0494 145.74 92.4093 155.329 92.4093 155.329C92.4093 155.329 143.077 106.356 148.954 102.933C148.78 102.272 152.023 94.1018 152.023 94.1018C152.023 94.1018 139.161 83.8289 134.902 83.8289C134.902 83.8289 128.542 86.764 123.274 99.1128Z" fill="#535d6a" class="lmn-illustration-color-neutral-secondary"></path>  <mask id="mask1_476_8303" style="mask-type:luminance" maskUnits="userSpaceOnUse" x="85" y="83" width="68" height="73">    <path fill-rule="evenodd" clip-rule="evenodd" d="M123.274 99.1128C114.846 117.112 85.9181 145.194 85.983 145.467C86.0494 145.74 92.4093 155.329 92.4093 155.329C92.4093 155.329 143.077 106.356 148.954 102.933C148.78 102.272 152.023 94.1018 152.023 94.1018C152.023 94.1018 139.161 83.8289 134.902 83.8289C134.902 83.8289 128.542 86.764 123.274 99.1128Z" fill="white"></path>  </mask>  <g mask="url(#mask1_476_8303)">    <path fill-rule="evenodd" clip-rule="evenodd" d="M132.706 86.5532C122.932 97.9402 139.898 120.187 139.898 120.187L146.201 108.58L132.706 86.5532Z" fill="#0e1115" class="lmn-illustration-color-neutral-primary"></path>  </g>  <path fill-rule="evenodd" clip-rule="evenodd" d="M180.352 158.712C181.88 158.832 182.239 160.884 181.854 164.21C181.814 164.558 181.766 164.914 181.71 165.277L181.647 165.665L181.697 165.561C182.44 164.025 183.307 162.941 184.325 162.486L184.517 162.408C184.644 162.362 184.785 162.428 184.831 162.555C184.877 162.682 184.811 162.822 184.684 162.868C183.675 163.233 182.772 164.377 182.005 166.057C181.664 166.802 181.373 167.602 181.133 168.402L181.052 168.676L180.98 168.933L180.843 169.476C180.834 169.509 180.821 169.537 180.805 169.561C182.024 170.34 183.675 171.036 186.046 171.678C190.841 172.974 190.413 174.632 190.413 174.632L168.372 174.836C167.985 174.836 167.63 174.619 167.455 174.274L167.699 163.878L176.306 163.577C176.946 164.867 177.613 166.136 178.103 166.882C178.642 167.702 179.276 168.444 180.176 169.124C179.851 168.331 179.171 165.682 178.886 163.73C178.682 162.327 178.637 161.159 178.788 160.307C178.967 159.302 179.433 158.717 180.204 158.708L180.352 158.712ZM180.314 159.2C179.756 159.157 179.421 159.543 179.27 160.392C179.13 161.182 179.173 162.304 179.37 163.66C179.608 165.287 180.129 167.422 180.464 168.475L180.535 168.69L180.547 168.643C180.647 168.226 180.747 167.782 180.843 167.32L180.937 166.853C181.121 165.919 181.269 165.009 181.368 164.154C181.719 161.123 181.397 159.285 180.314 159.2Z" fill="#0e1115" class="lmn-illustration-color-neutral-primary"></path>  <path fill-rule="evenodd" clip-rule="evenodd" d="M183.101 108.906L155.397 95.8115L155.399 95.7875L154.401 95.3177L134.895 84.9136C134.895 84.9136 132.772 86.0756 131.525 87.9168C127.083 98.6284 132.843 103.865 136.875 106.804C140.236 109.148 148.478 111.714 151.974 112.993C160.875 116.717 168.676 119.611 170.004 120.308C168.121 128.883 167.987 160.566 167.987 160.566C167.987 160.566 174.569 160.269 176.165 160.269C176.165 160.269 185.007 120.828 185.477 112.998C185.58 111.279 184.644 109.67 183.101 108.906Z" fill="#535d6a" class="lmn-illustration-color-neutral-secondary"></path>  <path fill-rule="evenodd" clip-rule="evenodd" d="M100.593 49.9505C98.0018 52.3099 72.0882 52.9535 62.8015 52.5242C53.5156 52.0956 39.4788 51.452 42.0704 46.3047C44.6619 41.1582 57.4033 48.2348 57.4033 48.2348C57.4033 48.2348 50.9248 42.2303 56.3229 40.3003C61.7219 38.3702 69.0644 43.7318 69.0644 43.7318C69.0644 43.7318 59.7784 30.8643 68.6328 29.1485C77.4864 27.4327 82.2373 42.016 82.2373 42.016C82.2373 42.016 83.7493 38.1552 86.7724 39.4424C89.7955 40.7288 93.251 45.0183 94.1148 48.449C100.593 44.5897 100.593 49.9505 100.593 49.9505Z" fill="#cbced2" class="lmn-illustration-color-neutral-quaternary"></path>  <path fill-rule="evenodd" clip-rule="evenodd" d="M268.136 23.6282C268.136 29.9101 263.161 35.0015 257.026 35.0015C250.888 35.0015 245.913 29.9101 245.913 23.6282C245.913 17.3482 250.888 12.2549 257.026 12.2549C263.161 12.2549 268.136 17.3482 268.136 23.6282Z" fill="#cbced2" class="lmn-illustration-color-neutral-quaternary"></path>  <path fill-rule="evenodd" clip-rule="evenodd" d="M48.3719 163.207C39.3039 162.868 21.5034 147.622 27.8847 111.37C34.2661 75.1181 53.4096 75.1181 60.1271 78.8447C66.8439 82.5719 75.9126 104.594 71.3706 131.253C67.3404 150.904 57.4399 163.546 48.3719 163.207Z" fill="#cbced2" class="lmn-illustration-color-neutral-quaternary"></path>  <path fill-rule="evenodd" clip-rule="evenodd" d="M52.3702 77.5676L51.7116 77.355L51.6271 77.6365C50.3219 82.2201 48.5443 98.9975 47.3264 118.565L47.0956 122.426C47.0193 123.756 46.9463 125.085 46.8767 126.41C45.7205 124.958 43.5829 122.687 40.5112 119.6L38.4068 117.501L29.5725 108.811L28.8642 108.094L28.3634 108.575L28.4963 108.712C29.5438 109.786 34.2504 114.397 36.4699 116.572L36.7226 116.82L37.7523 117.837C37.2463 117.685 36.7197 117.539 36.1743 117.396C34.2923 116.905 32.278 116.491 30.2639 116.151C29.8411 116.079 29.4363 116.014 29.0533 115.956L28.3172 115.847L27.5754 115.746L27.4918 116.439L28.5774 116.589C28.8206 116.625 29.0739 116.664 29.3363 116.706L30.1497 116.839C32.1454 117.176 34.1408 117.586 36.0012 118.072C37.0226 118.338 37.9757 118.621 38.8474 118.919L38.9669 119.037C42.8084 122.866 45.3732 125.576 46.5494 127.118L46.7536 127.394L46.8283 127.339C45.6371 150.493 45.4666 172.706 46.5932 189.68L46.7233 191.538L47.413 191.486L47.3467 190.564C46.4992 178.459 46.3311 163.57 46.7382 147.525L46.8064 147.579L48.1161 145.916C48.5782 145.336 49.0731 144.72 49.5976 144.074L50.406 143.084C51.6326 141.588 52.8847 140.093 54.1501 138.617L54.4637 138.549C56.0818 138.2 57.0053 138.003 57.9332 137.813L59.9224 137.418C60.8973 137.23 61.8308 137.06 62.7277 136.908C65.7578 136.395 68.2338 136.112 70.0336 136.112V135.415L69.7009 135.418C67.8897 135.449 65.4978 135.732 62.6132 136.221C61.4854 136.412 60.3011 136.631 59.0506 136.878C58.5948 136.968 58.1951 137.048 57.7962 137.129L54.9017 137.745C56.2448 136.193 57.6 134.668 58.9527 133.192C60.563 131.435 62.1267 129.797 63.6298 128.3C66.8942 125.047 69.7928 122.537 72.2237 120.923L71.8436 120.341L71.5032 120.57C69.1007 122.216 66.2881 124.671 63.1439 127.803C61.6329 129.309 60.062 130.954 58.445 132.718C55.5509 135.876 52.6467 139.257 49.8732 142.639C49.3185 143.316 48.7918 143.964 48.2964 144.58L47.0365 146.16L46.7647 146.507C46.9741 138.696 47.3185 130.62 47.786 122.466L47.8991 120.534C48.4606 111.144 49.1574 102.311 49.8753 95.0654L50.9008 94.1164L51.8477 93.2557C53.4339 91.8242 55.0733 90.3928 56.6774 89.0573C57.2535 88.5777 57.8158 88.1183 58.3618 87.6818L58.7353 87.3848C60.9565 85.628 62.8157 84.3306 64.1916 83.6177L63.8757 82.9972L63.6205 83.1329C62.1473 83.9356 60.2174 85.3085 57.9323 87.1351C57.3826 87.5745 56.8168 88.0368 56.2373 88.5192C54.6253 89.8613 52.9792 91.2986 51.3866 92.7358C50.876 93.1966 50.4044 93.6273 49.9803 94.0187C50.7828 86.1136 51.6047 80.2454 52.2873 77.8444L52.3702 77.5676Z" fill="#a1a7ae" class="lmn-illustration-color-neutral-tertiary"></path>  <path fill-rule="evenodd" clip-rule="evenodd" d="M251.223 190.785C248.666 189.282 239.644 170.486 251.523 160.412C263.402 150.337 273.534 156.755 277.236 161.615C280.938 166.474 283.851 186.575 271.822 191.086C264.929 191.733 253.778 192.289 251.223 190.785Z" fill="#cbced2" class="lmn-illustration-color-neutral-quaternary"></path>  <path fill-rule="evenodd" clip-rule="evenodd" d="M263.889 155.828L263.216 155.673L263.163 155.907C262.21 160.33 260.738 174.821 260.34 184.088L246.274 170.506L245.793 171.004L260.293 185.004L260.305 184.992C260.209 187.613 260.212 189.737 260.352 190.975L261.039 190.897L261.015 190.658C260.837 188.716 260.948 184.928 261.221 180.515L261.236 180.535L265.263 177.627L278.997 179.099L279.076 178.412L277.621 178.239C276.861 178.152 275.955 178.051 274.922 177.939L271.667 177.592L266.106 177.018L279.236 167.535L278.833 166.974L275.072 169.677L261.276 179.653C261.844 170.975 262.986 160.254 263.785 156.311L263.889 155.828Z" fill="#a1a7ae" class="lmn-illustration-color-neutral-tertiary"></path></svg>