<svg width="22" height="32" viewBox="0 0 22 32" fill="none" xmlns="http://www.w3.org/2000/svg">
<g clip-path="url(#clip0_1_283)">
<path d="M5.33376 32C8.27776 32 10.6675 29.6102 10.6675 26.6662V21.3325H5.33376C2.38976 21.3325 0 23.7222 0 26.6662C0 29.6102 2.38976 32 5.33376 32Z" fill="#0ACF83"/>
<path d="M0 16C0 13.056 2.38976 10.6662 5.33376 10.6662H10.6675V21.3324H5.33376C2.38976 21.3337 0 18.9439 0 16Z" fill="#A259FF"/>
<path d="M0 5.33376C0 2.38976 2.38976 0 5.33376 0H10.6675V10.6662H5.33376C2.38976 10.6662 0 8.27776 0 5.33376Z" fill="#F24E1E"/>
<path d="M10.6662 0H16C18.944 0 21.3337 2.38976 21.3337 5.33376C21.3337 8.27776 18.944 10.6662 16 10.6662H10.6662V0Z" fill="#FF7262"/>
<path d="M21.3337 16C21.3337 18.944 18.944 21.3338 16 21.3338C13.056 21.3338 10.6662 18.944 10.6662 16C10.6662 13.056 13.056 10.6662 16 10.6662C18.944 10.6662 21.3337 13.056 21.3337 16Z" fill="#1ABCFE"/>
</g>
<defs>
<clipPath id="clip0_1_283">
<rect width="21.3338" height="32" fill="white"/>
</clipPath>
</defs>
</svg>
