<svg width="16" height="16" viewBox="0 0 16 16" fill="none" xmlns="http://www.w3.org/2000/svg">
<g clip-path="url(#clip0_1_276)">
<path d="M11.7449 7.7925C11.6732 8.83459 11.0789 9.56619 10.3929 9.87625C9.6654 10.2049 8.9301 10.0236 8.56298 9.425C7.96193 8.44481 8.37494 7.76263 8.77433 7.10288C9.22718 6.35478 9.74051 5.50684 9.24817 3.85791C8.8595 2.55613 8.09831 1.46322 6.98572 0.609531C6.63888 0.343437 6.30994 0.143312 6.04299 0C6.41583 0.907562 6.90069 2.59641 6.39422 4.46228C6.073 5.64581 5.22406 6.54269 4.40305 7.41003C3.32172 8.55247 2.20351 9.73378 2.20351 11.6213C2.20351 13.0855 2.71366 14.2519 3.71974 15.0882C4.48161 15.7214 5.25903 15.968 5.26678 15.97H7.12186L7.08303 15.9692C7.07588 15.9637 6.36914 15.4058 6.35697 14.766C6.35129 14.467 6.50822 14.1802 6.82339 13.9135C7.29678 13.5129 7.55696 13.0816 7.61886 12.5949C7.65671 12.2973 7.61845 11.9826 7.50213 11.643C8.28731 11.9723 9.0995 12.6913 9.37473 13.5838C9.62191 14.3853 9.39325 15.2097 8.71412 15.97H10.7443C12.0742 14.9281 12.8228 13.6796 12.9696 12.2591C13.1567 10.4479 12.3287 8.742 11.7449 7.7925Z" fill="black"/>
<path d="M7.12188 15.97L8.68739 16C8.69648 15.99 8.70518 15.98 8.71411 15.97H7.12188Z" fill="black"/>
</g>
<defs>
<clipPath id="clip0_1_276">
<rect width="15.2" height="16" fill="white"/>
</clipPath>
</defs>
</svg>
