<svg width="79" height="69" viewBox="0 0 79 69" fill="none" xmlns="http://www.w3.org/2000/svg">
<path d="M31.8564 59.1876C30.3602 67.9885 19.0163 70.6592 13.7511 63.4502C10.4625 58.9476 11.4466 52.6316 15.9492 49.3431L34.1604 36.042C34.4809 35.8079 34.8879 35.7264 35.2737 35.8188L35.7253 35.9271C35.7462 35.9321 35.7645 35.9443 35.7772 35.9616C35.7915 35.9813 35.7974 36.006 35.7933 36.03L31.8564 59.1876Z" fill="#fff"/>
<path d="M54.6853 50.3416C61.7792 55.761 58.8646 67.0447 50.0336 68.3508C44.518 69.1667 39.3854 65.3567 38.5696 59.8411L35.27 37.5323C35.212 37.1398 35.3292 36.7415 35.5905 36.443L35.8965 36.0936C35.9106 36.0775 35.93 36.067 35.9512 36.0638C35.9752 36.0602 35.9998 36.0666 36.0192 36.0814L54.6853 50.3416Z" fill="#ffff"/>
<path d="M49.0891 17.4331C54.7178 10.5041 65.9096 13.7542 66.9515 22.6203C67.6023 28.1578 63.6408 33.1744 58.1033 33.8252L35.706 36.4573C35.3119 36.5036 34.9173 36.3746 34.6267 36.1044L34.2867 35.7882C34.271 35.7736 34.261 35.7539 34.2585 35.7326C34.2556 35.7084 34.2627 35.6841 34.2781 35.6652L49.0891 17.4331Z" fill="#fff"/>
<path d="M25.5167 13.9966C22.0908 5.75297 30.2647 -2.55393 38.5625 0.738385C43.7451 2.79468 46.2795 8.663 44.2232 13.8456L35.9062 34.8073C35.7599 35.1761 35.459 35.4621 35.0832 35.5896L34.6435 35.7388C34.6232 35.7457 34.6011 35.7451 34.5812 35.7372C34.5586 35.7282 34.5405 35.7104 34.5312 35.6879L25.5167 13.9966Z" fill="#fff"/>
<path d="M11.5326 39.6792C2.6928 40.9249 -3.29504 30.9267 1.97573 23.7217C5.2677 19.2217 11.5844 18.2423 16.0845 21.5343L34.2856 34.8492C34.6059 35.0835 34.8071 35.4465 34.8362 35.8423L34.8701 36.3054C34.8717 36.3268 34.8656 36.348 34.8529 36.3653C34.8386 36.3849 34.8168 36.3979 34.7927 36.4013L11.5326 39.6792Z" fill="#fff"/>
<circle cx="73.0031" cy="62.0077" r="6" fill="#B2FF45"/>
</svg>
